<svg xmlns="http://www.w3.org/2000/svg" viewBox="0 0 80 80" width="16px" height="16px"><path fill="#e8d47b" d="M61,54.499c-3.584,0-6.5-2.916-6.5-6.5s2.916-6.5,6.5-6.5c4.617,0,6.5,1.207,6.5,4.167 C67.5,49.154,64.588,54.499,61,54.499z"/><path fill="#ba9b48" d="M61,41.999c4.98,0,6,1.466,6,3.667c0,4.292-3.38,8.333-6,8.333c-3.308,0-6-2.692-6-6 S57.692,41.999,61,41.999 M61,40.999c-3.866,0-7,3.134-7,7c0,3.866,3.134,7,7,7s7-5.467,7-9.333C68,41.8,64.866,40.999,61,40.999 L61,40.999z"/><path fill="#e8d47b" d="M19,54.499c-3.588,0-6.5-5.345-6.5-8.833c0-2.96,1.883-4.167,6.5-4.167c3.584,0,6.5,2.916,6.5,6.5 S22.584,54.499,19,54.499z"/><path fill="#ba9b48" d="M19,41.999c3.308,0,6,2.692,6,6s-2.692,6-6,6c-2.62,0-6-4.041-6-8.333 C13,43.465,14.02,41.999,19,41.999 M19,40.999c-3.866,0-7,0.801-7,4.667c0,3.866,3.134,9.333,7,9.333s7-3.134,7-7 C26,44.133,22.866,40.999,19,40.999L19,40.999z"/><path fill="#ffeea3" d="M40,77.5c-2.228,0-4.326-0.982-5.757-2.696l-0.098-0.117l-0.147-0.043 C24.874,71.996,18.5,63.507,18.5,54V24.762c0-5.506,4.479-9.984,9.985-9.984h23.03c5.506,0,9.985,4.479,9.985,9.984V54 c0,9.507-6.374,17.996-15.499,20.644l-0.147,0.043l-0.098,0.117C44.326,76.518,42.228,77.5,40,77.5z"/><path fill="#ba9b48" d="M51.515,15.277c5.23,0,9.485,4.255,9.485,9.485V54c0,9.286-6.225,17.578-15.138,20.164 l-0.293,0.085l-0.196,0.234C44.037,76.083,42.079,77,40,77s-4.037-0.917-5.373-2.517l-0.196-0.234l-0.293-0.085 C25.225,71.577,19,63.285,19,54V24.762c0-5.23,4.255-9.485,9.485-9.485H51.515 M51.515,14.277h-23.03 C22.694,14.277,18,18.971,18,24.762V54c0,10.018,6.699,18.466,15.859,21.125C35.327,76.881,37.532,78,40,78 s4.673-1.119,6.141-2.876C55.301,72.466,62,64.018,62,54V24.762C62,18.971,57.306,14.277,51.515,14.277L51.515,14.277z"/><g><path fill="#b0c1d4" d="M61.5,50.5V36.619c0-10.998-9.255-14.066-9.349-14.096l-0.315-0.1l-0.216,0.251 c-0.067,0.078-6.875,7.825-19.764,7.825c-4.016,0-13.357,1.104-13.357,11.335V50.5h-0.157C17.492,48.274,12.5,34.826,12.5,25.747 c0-5.78,2.41-11.551,6.612-15.831C22.433,6.533,28.406,2.5,38,2.5c8.358,0,12.784,4.204,14.679,6.711l0.15,0.198h0.249 c3.742,0,14.422,3.131,14.422,17.043c0,7.142-5.016,21.673-5.853,24.048H61.5z"/><path fill="#66798f" d="M38,3c8.141,0,12.441,4.08,14.28,6.512l0.3,0.397h0.498C56.69,9.909,67,12.948,67,26.452 c0,5.763-3.325,16.452-5,21.472V36.619c0-5.922-2.624-9.567-4.825-11.582c-2.385-2.184-4.772-2.958-4.872-2.99l-0.63-0.198 l-0.431,0.5C51.176,22.424,44.495,30,31.857,30C23.051,30,18,34.314,18,41.835v6.282c-1.669-4.699-5-15.001-5-22.37 c0-5.65,2.358-11.293,6.468-15.48C22.722,6.951,28.579,3,38,3 M38,2C21.346,2,12,14.26,12,25.747C12,35.834,18,51,18,51h1 c0,0,0-6.389,0-9.164C19,33.308,25.783,31,31.857,31C45.15,31,52,23,52,23s9,2.86,9,13.62C61,39.672,61,51,61,51h1 c0,0,6-16.617,6-24.547C68,12.486,57.286,8.909,53.078,8.909C52.015,7.503,47.588,2,38,2L38,2z"/></g><path fill="#36404d" d="M50.5 47A2.5 2.5 0 1 0 50.5 52 2.5 2.5 0 1 0 50.5 47zM29.5 47A2.5 2.5 0 1 0 29.5 52 2.5 2.5 0 1 0 29.5 47z"/></svg>